#!OML:ASF I:\Actors\actors\Patient Classification 1\Patient 1\Session 1\Subject1.ASF
:FULLY-SPECIFIED
:DEGREES
220
root -0.728654 17.5654 7.3487 5.2096 -11.9319 -7.00389
lowerback 3.962 2.95835 5.80011
upperback -5.03345 4.36596 -0.551418
thorax -7.03421 1.82602 -4.24254
lowerneck -13.1204 2.03002 3.41596
upperneck 32.8631 1.08303 2.76627
head 13.2343 1.25938 0.647788
rclavicle -8.29926e-015 1.03368e-014
rhumerus 18.6061 59.312 -77.8463
rradius 72.826
rwrist 3.86203
rhand -5.20629 -52.3618
rfingers 7.12502
rthumb 20.5952 -81.2892
lclavicle -8.29926e-015 1.03368e-014
lhumerus 0.00933014 2.17808 90.636
lradius 47.1913
lwrist 38.5192
lhand -62.3299 -36.3276
lfingers 7.12502
lthumb -34.367 -9.6261
rfemur -7.83179 20.7015 23.901
rtibia 10.3601
rfoot -9.73899 -12.6634
rtoes -5.2599
lfemur 7.9537 -34.0969 -15.5498
ltibia -2.21475
lfoot -26.0391 51.7286
ltoes 17.6649
221
root -0.733667 17.5657 7.32847 5.23477 -11.8975 -7.09469
lowerback 4.15976 2.96946 5.70824
upperback -5.00208 4.37866 -0.670778
thorax -7.11048 1.83122 -4.33034
lowerneck -13.0951 2.05262 3.50309
upperneck 32.798 1.07432 2.8319
head 13.2026 1.27388 0.655575
rclavicle -3.3197e-014 1.98785e-014
rhumerus 18.9293 59.3553 -78.1321
rradius 72.0606
rwrist 4.33389
rhand -5.46301 -52.4466
rfingers 7.12502
rthumb 20.3485 -81.4005
lclavicle -3.3197e-014 1.98785e-014
lhumerus 4.54579 6.11691 91.2373
lradius 39.291
lwrist 34.5932
lhand -62.0918 -42.3517
lfingers 7.12502
lthumb -34.1409 -15.5993
rfemur -7.879 20.6527 24.0019
rtibia 10.2966
rfoot -9.68679 -12.6207
rtoes -5.00569
lfemur 7.78461 -34.0248 -15.2933
ltibia -2.17604
lfoot -25.9745 51.6136
ltoes 17.6922
222
root -0.738448 17.5664 7.30714 5.30787 -11.8044 -7.22782
lowerback 4.21939 2.87807 5.54041
upperback -4.88727 4.24222 -0.687609
thorax -7.04588 1.77728 -4.24216
lowerneck -13.0028 2.16315 3.64483
upperneck 32.5316 1.22844 2.77531
head 13.072 1.34653 0.625595
rclavicle -5.01931e-015 -3.4191e-014
rhumerus 19.3895 59.4973 -78.3188
rradius 71.5438
rwrist 4.93232
rhand -5.47474 -52.6129
rfingers 7.12502
rthumb 20.3372 -81.5681
lclavicle -5.01931e-015 -3.4191e-014
lhumerus 9.71823 12.7175 92.9867
lradius 30.6567
lwrist 24.1731
lhand -61.623 -40.4994
lfingers 7.12502
lthumb -33.6955 -13.6486
rfemur -7.98223 20.6294 24.1337
rtibia 10.2615
rfoot -9.63501 -12.6398
rtoes -4.65322
lfemur 7.53462 -33.9088 -14.9174
ltibia -2.165
lfoot -25.6339 51.4984
ltoes 17.4796
223
root -0.741995 17.5724 7.27941 5.64672 -11.767 -7.7917
lowerback 4.25589 2.74482 5.66629
upperback -4.82334 4.08315 -0.537366
thorax -7.01935 1.69874 -4.14046
lowerneck -13.0511 2.31456 3.69901
upperneck 32.2847 1.44045 2.76742
head 12.9794 1.44087 0.640556
rclavicle 1.64494e-014 -2.06736e-014
rhumerus 20.0532 59.8067 -78.2991
rradius 71.189
rwrist 5.11174
rhand -5.51476 -52.6269
rfingers 7.12502
rthumb 20.2988 -81.5861
lclavicle 1.64494e-014 -2.06736e-014
lhumerus 16.0737 23.5379 97.1926
lradius 22.0655
lwrist 8.72779
lhand -61.6197 -41.6227
lfingers 7.12502
lthumb -33.6924 -14.7712
rfemur -8.41664 20.814 24.668
rtibia 10.4112
rfoot -9.59504 -12.7413
rtoes -4.39587
lfemur 7.1355 -34.0908 -13.9303
ltibia -2.2767
lfoot -25.5461 51.6971
ltoes 17.4352
224
root -0.74552 17.5793 7.25291 5.98625 -11.7633 -8.39139
lowerback 4.59446 2.59455 5.82386
upperback -4.90095 3.92706 -0.426948
thorax -7.31605 1.60294 -4.12267
lowerneck -13.2201 2.44404 3.75777
upperneck 32.2533 1.57508 2.85151
head 13.004 1.51719 0.684894
rclavicle 1.39149e-015 -5.56597e-015
rhumerus 20.3238 60.131 -78.6461
rradius 70.9774
rwrist 5.13471
rhand -5.69439 -52.5359
rfingers 7.12502
rthumb 20.1261 -81.5134
lclavicle 1.39149e-015 -5.56597e-015
lhumerus 26.6124 41.5716 108.162
lradius 15.0009
lwrist -14.115
lhand -61.9999 -42.6618
lfingers 7.12502
lthumb -34.0536 -15.89
rfemur -8.83659 21.0146 25.2431
rtibia 10.5399
rfoot -9.53367 -12.83
rtoes -4.23592
lfemur 6.85521 -34.5454 -13.0148
ltibia -2.42203
lfoot -25.8575 52.1071
ltoes 17.6315
225
root -0.751078 17.5777 7.24329 5.87677 -11.7007 -8.13293
lowerback 4.91371 2.38594 5.14038
upperback -4.79257 3.60102 -0.519075
thorax -7.4497 1.4737 -3.82213
lowerneck -13.3344 2.6234 3.92819
upperneck 32.0895 1.79824 2.81322
head 12.9644 1.62767 0.672349
rclavicle 2.52953e-014 2.38542e-015
rhumerus 20.6798 60.428 -78.9366
rradius 70.9319
rwrist 5.00198
rhand -5.84705 -52.6195
rfingers 7.12502
rthumb 19.9794 -81.6124
lclavicle 2.52953e-014 2.38542e-015
lhumerus 51.2498 59.4128 135.27
lradius 11.4698
lwrist -37.1919
lhand -62.8496 -43.4419
lfingers 7.12502
lthumb -34.8602 -16.8533
rfemur -8.6956 20.9013 24.9904
rtibia 10.3371
rfoot -9.44081 -12.7977
rtoes -4.12235
lfemur 7.07008 -34.9935 -13.5096
ltibia -2.49822
lfoot -26.0736 52.4331
ltoes 17.6813
